# xmcd CD database file
#
# Track frame offsets:
#	150
#	6638
#	29053
#	51138
#	332550
#
# Disc length: 4440 seconds
#
# Revision: 0
# Processed by: cddbd v1.5PL3 Copyright (c) Steve Scherf et al.
# Submitted via: CDex 1.50
#
DISCID=42115605
DTITLE=ポルノグラフィティ - 音のない森
DYEAR=2003
DGENRE=JPop
TTITLE0=awe
TTITLE1=音のない森
TTITLE2=sonic
TTITLE3=data
TTITLE4=data
EXTD=YEAR: 2003
EXTT0=
EXTT1=
EXTT2=
EXTT3=
EXTT4=
PLAYORDER=
